<svg width="16" height="16" viewBox="0 0 16 16" fill="none" xmlns="http://www.w3.org/2000/svg">
  <path d="M7.4375,1.75 C7.74816017,1.75 8,2.00183983 8,2.3125 C8,2.62316017 7.74816017,2.875 7.4375,2.875 L2.875,2.875 L2.875,13.125 L13.125,13.125 L13.125,8.5625 C13.125,8.25494643 13.3718282,8.00504268 13.678198,8.00007536 L13.6875,8 C13.9981602,8 14.25,8.25183983 14.25,8.5625 L14.25,13.1875 C14.25,13.7743025 13.7743025,14.25 13.1875,14.25 L2.8125,14.25 C2.22569745,14.25 1.75,13.7743025 1.75,13.1875 L1.75,2.8125 C1.75,2.22569745 2.22569745,1.75 2.8125,1.75 L7.4375,1.75 Z M13.75,1.75 C14.0261424,1.75 14.25,1.97385763 14.25,2.25 L14.25,5.4375 C14.25,5.74816017 13.9981602,6 13.6875,6 C13.3768398,6 13.125,5.74816017 13.125,5.4375 L13.125,3.67046875 L8.96024756,7.83524756 C8.74057765,8.05491748 8.38442235,8.05491748 8.16475244,7.83524756 C7.94508252,7.61557765 7.94508252,7.25942235 8.16475244,7.03975244 L12.3295,2.875 L10.5625,2.875 C10.2518398,2.875 10,2.62316017 10,2.3125 C10,2.00183983 10.2518398,1.75 10.5625,1.75 L13.75,1.75 Z" fill="currentColor"/>
</svg>
