<?xml version="1.0" encoding="UTF-8"?>
<svg width="16px" height="16px" viewBox="0 0 16 16" version="1.1" xmlns="http://www.w3.org/2000/svg" xmlns:xlink="http://www.w3.org/1999/xlink">
    <title>1.通用/2.Icon图标/1.操作/setting备份 2@1x</title>
    <g id="项目" stroke="none" stroke-width="1" fill="none" fill-rule="evenodd" opacity="0.800000012">
        <g id="规则库管理工具-部署内容" transform="translate(-1853, -22)">
            <g id="用户名及退出" transform="translate(1771, 18)">
                <g id="1.通用/2.Icon图标/1.操作/setting备份-2" transform="translate(82, 4)">
                    <rect id="矩形" x="0" y="0" width="16" height="16"></rect>
                    <path d="M12.3427038,2.83228029 C13.8577616,4.10667768 14.75,5.98124939 14.75,8 C14.75,11.7279221 11.7279221,14.75 8,14.75 C4.27207794,14.75 1.25,11.7279221 1.25,8 C1.25,5.98124939 2.14223839,4.10667768 3.65729624,2.83228029 C3.89503504,2.63230528 4.2498722,2.66291888 4.44984721,2.90065768 C4.64982221,3.13839648 4.61920861,3.49323364 4.38146981,3.69320864 C3.11790279,4.75606345 2.375,6.31688461 2.375,8 C2.375,11.1066017 4.89339828,13.625 8,13.625 C11.1066017,13.625 13.625,11.1066017 13.625,8 C13.625,6.31688461 12.8820972,4.75606345 11.6185302,3.69320864 C11.3807914,3.49323364 11.3501778,3.13839648 11.5501528,2.90065768 C11.7501278,2.66291888 12.104965,2.63230528 12.3427038,2.83228029 Z M8,1 C8.31066017,1 8.5625,1.25183983 8.5625,1.5625 L8.5625,7.4375 C8.5625,7.74816017 8.31066017,8 8,8 C7.68933983,8 7.4375,7.74816017 7.4375,7.4375 L7.4375,1.5625 C7.4375,1.25183983 7.68933983,1 8,1 Z" id="形状" fill="#FFFFFF"></path>
                </g>
            </g>
        </g>
    </g>
</svg>