<svg width="16" height="16" viewBox="0 0 16 16" fill="none" xmlns="http://www.w3.org/2000/svg">
  <path d="M2.75,14.25 C2.19771525,14.25 1.75,13.8022847 1.75,13.25 L1.75,2.7531496 C1.75,2.20086485 2.19771525,1.7531496 2.75,1.7531496 L4.40853791,1.75834627 C4.43819054,1.75286489 4.46876071,1.75 4.5,1.75 L9,1.75 C9.05270342,1.75 9.10350231,1.75815424 9.15120388,1.77326991 L11.2751294,1.77995324 C11.539255,1.78078382 11.7923255,1.88607554 11.9790915,2.07284151 L13.9571068,4.05085678 C14.1446432,4.23839316 14.25,4.49274707 14.25,4.75796356 L14.25,13.25 C14.25,13.8022847 13.8022847,14.25 13.25,14.25 L2.75,14.25 Z M2.875,2.87853125 L2.875,13.125 L4,13.125 L4,9.125 C4,8.84885763 4.22385763,8.625 4.5,8.625 L11.5,8.625 C11.7761424,8.625 12,8.84885763 12,9.125 L12,13.125 L13.125,13.125 L13.125,4.80973438 L11.2200469,2.90478125 L9.5,2.899375 L9.5,5.0625 C9.5,5.33864237 9.27614237,5.5625 9,5.5625 L4.5,5.5625 C4.22385763,5.5625 4,5.33864237 4,5.0625 L4,2.8820625 L2.875,2.87853125 Z M10.875,9.75 L5.125,9.75 L5.125,13.125 L10.875,13.125 L10.875,9.75 Z M5.125,2.88560938 L5.125,4.4375 L8.375,4.4375 L8.375,2.89582812 L5.125,2.88560938 Z" fill="currentColor"/>
</svg>
